PathFileType	4	(X/Y/Z)	path1_02_0-549.trc
DataRate	CameraRate	NumFrames	NumMarkers	Units	OrigDataRate	OrigDataStartFrame	OrigNumFrames
30	30	5	22	m	30	205	549
Frame#	Time	Hip			RHip			RKnee			RAnkle			RBigToe			RSmallToe			RHeel			LHip			LKnee			LAnkle			LBigToe			LSmallToe			LHeel			Neck			Head			Nose			RShoulder			RElbow			RWrist			LShoulder			LElbow			LWrist		
		X1	Y1	Z1	X2	Y2	Z2	X3	Y3	Z3	X4	Y4	Z4	X5	Y5	Z5	X6	Y6	Z6	X7	Y7	Z7	X8	Y8	Z8	X9	Y9	Z9	X10	Y10	Z10	X11	Y11	Z11	X12	Y12	Z12	X13	Y13	Z13	X14	Y14	Z14	X15	Y15	Z15	X16	Y16	Z16	X17	Y17	Z17	X18	Y18	Z18	X19	Y19	Z19	X20	Y20	Z20	X21	Y21	Z21	X22	Y22	Z22
206	6.866666666666666	2.5979869357514365	0.8363734200086588	0.21601772374475564	2.597435411789901	0.799377191644549	0.13523408253916705	2.612468364192958	0.45102131602818435	0.15904265428509284	2.6556894030245157	0.09791375110245515	0.15554209288433132	2.468111964934556	0.02261715320905715	0.13682094825648075	2.5070241151270403	0.0214864783004999	0.07339814355469655	2.7015069469251007	0.03056482835442731	0.1518931238885095	2.5968284725666657	0.7965939781611197	0.2900428135634283	2.6102967199579252	0.442442210809648	0.2766084706499667	2.6590221330439543	0.10055710089365207	0.28696951242761237	2.4731059517574847	0.021315376884302246	0.29875651470291087	2.5150033697171152	0.022228895064156123	0.34444620461362785	2.709546435308274	0.033531556591684566	0.2850017667069076	2.565092791186412	1.468995999720836	0.2353146592835772	2.5460633972866846	1.700758703979595	0.2434749123141721	2.430553352781711	1.6056217596156472	0.23283753947017158	2.6076170784862707	1.3602298982423089	0.06410927764051486	2.5681098825668713	1.0704038037499506	0.0026994663321873004	2.488274191270326	0.8454379639158732	0.026961323235359384	2.600543328749079	1.342673503838568	0.3649183644652634	2.569406315447684	1.0666395358364638	0.4239706818894955	2.495793908561129	0.8431595142282955	0.4069901122847358
207	6.9	2.5978322175918738	0.8358528511633565	0.21557902408531185	2.597250065108914	0.7992605577676202	0.13511021051686375	2.6123551604868913	0.45110562875998655	0.1585283410084003	2.655789713183625	0.09821767942145909	0.15566830058668307	2.469261211755038	0.02275351078508726	0.13716905977597477	2.507415938726704	0.021445677094550065	0.07344636815025588	2.7027118163444377	0.030762670476501074	0.15227070230322823	2.597138734164053	0.7960906823197259	0.28936446646484865	2.6107923033635565	0.4418434211555384	0.27556424829422665	2.6591421997530698	0.09883966418122715	0.283707186388836	2.4734894888939145	0.02069792705175258	0.29877802269783627	2.515671412061642	0.02021286788992968	0.3440015128628493	2.7105218506589837	0.03305664737288818	0.2856747280506338	2.565079133677335	1.469050199806877	0.23561196330808576	2.5458023036456354	1.700717573510941	0.24310854329168702	2.4306468683014115	1.6053796853740396	0.2325955069327848	2.6073460439507996	1.3603410957622302	0.06383466013979412	2.5683083025374733	1.0700711576218287	0.0034002398520955037	2.4887051067641313	0.845034640735478	0.027999530921363563	2.600991377938655	1.3423699979005705	0.3646008085668292	2.56965515636951	1.0663826343697462	0.42354435923871686	2.495734191326521	0.8428874884747564	0.40693442904419347
208	6.933333333333334	2.597785190779109	0.8354755591123483	0.2151687626240603	2.597215436516187	0.7991837925264438	0.13487215927371088	2.6123775950746393	0.4513496441459326	0.1580961842684311	2.6559834212153106	0.09841600697593192	0.15589949798284716	2.470873744700919	0.02285329904960159	0.13800718226644396	2.507701601897146	0.021421085836923433	0.07347747603016076	2.7036940008894854	0.031061781030425138	0.15302747114735682	2.5974086575302207	0.795756326866186	0.28877009737511355	2.6117517594225226	0.44101277133240907	0.2738406825965554	2.6593420040306484	0.09766547398725936	0.28185698950159177	2.473900005739817	0.020193715997961784	0.29893679152244085	2.515925550471503	0.017987162978291574	0.34372034172470844	2.710511257731053	0.03269511137948346	0.28536530752330475	2.5652364231128235	1.469001110064312	0.23586365991167058	2.5453229231929275	1.7011217728989405	0.242530551835628	2.4307205843906665	1.605082965974209	0.23219294062805856	2.6071519889896746	1.3604802244125163	0.06355520124486429	2.568559692213171	1.0698321186300532	0.004080829423092878	2.489143283249722	0.8448190546905032	0.028766296428994607	2.601199323958873	1.342083768196225	0.36408674147692655	2.5698477275001546	1.0661425660096704	0.4232027278402872	2.495613435729338	0.8426807056904306	0.4069203733216055
209	6.966666666666667	2.5978865898091903	0.8353281390128902	0.21485345140208822	2.5972937692896343	0.7991466086305656	0.13451006081024705	2.6124750894343607	0.4516207503340336	0.15774383617805293	2.65616643260991	0.09854724010692043	0.15614957569287477	2.4725240607413905	0.023012301157953524	0.13912654720977946	2.507830122522744	0.0214615502135516	0.07349569178356162	2.7044147913495187	0.03138418274701885	0.15404818200733963	2.5975973484209494	0.7955928138824006	0.2883465514742155	2.6127462332920173	0.4402361474260467	0.2721232408488085	2.6596627407692948	0.09733206397939963	0.2820364381229179	2.4741942310196645	0.019971591974527463	0.2992036295555194	2.5156902571227207	0.01583003824220403	0.34377283513988816	2.7094875241572685	0.03266646428533067	0.2842095416017598	2.565510085002571	1.4688834503208155	0.2361159130443395	2.5446755417492217	1.7019997460814578	0.24177517750361577	2.430754476648526	1.6048864238849694	0.2317916965679281	2.6070981447117494	1.360642822544601	0.06337042142561584	2.5688050277475667	1.0697171818382059	0.004634037347515808	2.4895273371967326	0.8447843288635866	0.029240071059725408	2.6012561308262696	1.341852634858118	0.36344224477803116	2.5699540395282847	1.0659321381995839	0.4229989414557938	2.4955321228210083	0.8425607252215016	0.4069067761639165
210	7.0	2.5981204794477657	0.8353918574639346	0.21466125839349992	2.5974264522935266	0.7991642542386425	0.13407229506041723	2.6125471402137013	0.4518665179745903	0.15740695067116922	2.6562362329270774	0.09867631992034175	0.15631495561384687	2.473693635041624	0.02334226707118789	0.14010660670015707	2.5078621871457356	0.021571948104445016	0.07349286926414422	2.704961437984136	0.031735368285321267	0.15528377596970258	2.597685639292746	0.7955778264450971	0.2881610812181887	2.613512271331045	0.4396807760050841	0.27083376022318545	2.6600922810404355	0.0977127468264969	0.2839178350047669	2.4742499427759452	0.020045420409731514	0.2995089410584528	2.5150075945643207	0.013908723477182224	0.3441878995231651	2.707828131538414	0.032970495978553	0.2826272239356619	2.5658334373615146	1.4687309838596057	0.2364092433739076	2.5440640530475003	1.703163912333941	0.24104277761989806	2.4307481705292164	1.6048817393815253	0.2315849235360904	2.607179074655432	1.3608454807180608	0.06332758935892385	2.5690187864638308	1.0696967521916751	0.005004891904280897	2.489836658080986	0.8448576694541007	0.029469700457949596	2.6012475305752223	1.3416912315668144	0.3627960097127826	2.569984377044109	1.0657839540733636	0.42296119015053635	2.4955713552675958	0.8425285469798051	0.40685928755703427
